# AST/ASF file generated using VICON BodyLanguage
# -----------------------------------------------
:version 1.10
:name VICON
:units
  mass 1.0
  length 0.45
  angle deg
:documentation
   .ast/.asf automatically generated from VICON data using
   VICON BodyBuilder and BodyLanguage model FoxedUp or BRILLIANT.MOD
:root
   order TX TY TZ RX RY RZ
   axis XYZ
   position 0 0 0  
   orientation 0 0 0 
:bonedata
  begin
     id 1 
     name lhipjoint
     direction 0.612567 -0.751349 0.245431 
     length 2.42285 
     axis 0 0 0  XYZ
  end
  begin
     id 2 
     name lfemur
     direction 0.34202 -0.939693 0  
     length 7.11304  
     axis 0 0 20  XYZ
    dof rx ry rz
    limits (-160.0 20.0)
           (-70.0 70.0)
           (-60.0 70.0)
  end
  begin
     id 3 
     name ltibia
     direction 0.34202 -0.939693 0   
     length 7.84529   
     axis 0 0 20   XYZ
    dof rx
    limits (-10.0 170.0)
  end
  begin
     id 4 
     name lfoot
     direction 0.0779239 -0.214094 0.9737   
     length 1.97176   
     axis -90 7.62852e-016 20   XYZ
    dof rx rz
    limits (-45.0 90.0)
           (-70.0 20.0)
  end
  begin
     id 5 
     name ltoes
     direction 1.53565e-011 -4.21709e-011 1   
     length 0.993197   
     axis -90 7.62852e-016 20   XYZ
    dof rx
    limits (-90.0 20.0)
  end
  begin
     id 6 
     name rhipjoint
     direction -0.665722 -0.709315 0.231701   
     length 2.56642  
     axis 0 0 0  XYZ 
  end
  begin
     id 7 
     name rfemur
     direction -0.34202 -0.939693 0   
     length 7.32108   
     axis 0 0 -20   XYZ
    dof rx ry rz
    limits (-160.0 20.0)
           (-70.0 70.0)
           (-70.0 60.0)
  end
  begin
     id 8 
     name rtibia
     direction -0.34202 -0.939693 0   
     length 7.81254   
     axis 0 0 -20   XYZ
    dof rx
    limits (-10.0 170.0)
 end
 begin
     id 9 
     name rfoot
     direction -0.0832806 -0.228812 0.969902   
     length 2.08278  
     axis -90 -7.62852e-016 -20   XYZ
    dof rx rz
    limits (-45.0 90.0)
           (-20.0 70.0)
  end
  begin
     id 10 
     name rtoes
     direction -1.53589e-011 -4.22086e-011 1   
     length 1.04609   
     axis -90 -7.62852e-016 -20   XYZ
    dof rx
    limits (-90.0 20.0)
  end
  begin
     id 11 
     name lowerback
     direction -0.00506013 0.988403 -0.151766   
     length 2.01978   
     axis 0 0 0   XYZ
    dof rx ry rz
    limits (-20.0 45.0)
           (-30.0 30.0)
           (-30.0 30.0)
  end
  begin
     id 12 
     name upperback
     direction -0.00836389 0.99968 0.0238859   
     length 2.01276   
     axis 0 0 0   XYZ
    dof rx ry rz
    limits (-20.0 45.0)
           (-30.0 30.0)
           (-30.0 30.0)
  end
  begin
     id 13 
     name thorax
     direction -0.00684136 0.995386 0.0957043   
     length 2.07303   
     axis 0 0 0   XYZ
    dof rx ry rz
    limits (-20.0 45.0)
           (-30.0 30.0)
           (-30.0 30.0)
  end
  begin
     id 14 
     name lowerneck
     direction -0.0161045 0.999661 0.0204485   
     length 1.91243   
     axis 0 0 0   XYZ
    dof rx ry rz
    limits (-20.0 45.0)
           (-30.0 30.0)
           (-30.0 30.0)
  end
  begin
     id 15 
     name upperneck
     direction 0.0553583 0.990946 -0.122319   
     length 1.91574   
     axis 0 0 0   XYZ
    dof rx ry rz
    limits (-20.0 45.0)
           (-30.0 30.0)
           (-30.0 30.0)
  end
  begin
     id 16
     name head
     direction 0.0180273 0.998839 -0.0446756  
     length 1.92693  
     axis 0 0 0   XYZ
    dof rx ry rz
    limits (-20.0 45.0)
           (-30.0 30.0)
           (-30.0 30.0)
  end
  begin
     id 17 
     name lclavicle
     direction 0.945646 0.319323 -0.0615358  
     length 4.0076  
     axis 0 0 0   XYZ
    dof ry rz
    limits (-20.0 10.0)
           (0.0 20.0)
  end
  begin
     id 18 
     name lhumerus
     direction 1 -4.48967e-011 -2.79996e-027   
     length 5.64147   
     axis 180 -30 -90   XYZ
    dof rx ry rz
    limits (-60.0 90.0)
           (-90.0 90.0)
           (-90.0 90.0)
  end
  begin
     id 19
     name lradius
     direction 1 -4.48976e-011 -9.5122e-027   
     length 2.86444   
     axis 180 -30 -90   XYZ
    dof rx
    limits (-10.0 170.0)
  end
  begin
     id 20
     name lwrist
     direction 1 -4.48983e-011 -1.24047e-026   
     length 1.43222   
     axis 9.05591e-015 90 90   XYZ
    dof ry
    limits (-180.0 0.0)
 end
  begin
     id 21 
     name lhand
     direction 1 -4.4892e-011 -2.48094e-026   
     length 0.722123   
     axis 1.58305e-014 90 90   XYZ
    dof rx rz
    limits (-90.0 90.0)
           (-45.0 45.0)
  end
  begin
     id 22 
     name lfingers
     direction 1 -4.48895e-011 -4.96187e-026   
     length 0.582194   
     axis 3.1661e-014 90 90   XYZ
    dof rx
    limits (0.0 90.0)
  end
  begin
     id 23
     name lthumb
     direction 0.707107 -6.34961e-011 0.707107   
     length 0.835918   
     axis -90 45 2.85299e-015   XYZ
    dof rx rz
    limits (-45.0 45.0)
           (-45.0 45.0)
  end
  begin
     id 24 
     name rclavicle
     direction -0.932635 0.324218 -0.15835   
     length 3.65819  
     axis 0 0 0   XYZ 
    dof ry rz
    limits (-10.0 20.0)
           (-20.0 0.0)
  end
  begin
     id 25 
     name rhumerus
     direction -1 -4.48965e-011 -4.02296e-027  
     length 5.44729   
     axis 180 30 90   XYZ
    dof rx ry rz
    limits (-90.0 60.0)
           (-90.0 90.0)
           (-90.0 90.0)
  end
  begin
     id 26 
     name rradius
     direction -1 -4.48957e-011 -8.81087e-027   
     length 3.08821   
     axis 180 30 90   XYZ
    dof rx
    limits (-10.0 170.0)
  end
  begin
     id 27 
     name rwrist
     direction -1 -4.49015e-011 -1.24047e-026   
     length 1.5441   
     axis 9.05591e-015 -90 -90   XYZ
    dof ry
    limits (-180.0 0.0)
  end
  begin
     id 28
     name rhand
     direction -1 -4.4891e-011 -2.48094e-026   
     length 0.821049   
     axis 1.58305e-014 -90 -90   XYZ
    dof rx rz
    limits (-90.0 90.0)
           (-45.0 45.0)
  end
  begin
     id 29
     name rfingers
     direction -1 -4.48985e-011 -4.96187e-026   
     length 0.661951   
     axis 3.1661e-014 -90 -90   XYZ
    dof rx
    limits (0.0 90.0)
  end
  begin
     id 30
     name rthumb
     direction -0.707107 -6.34906e-011 0.707107   
     length 0.950433   
     axis -90 -45 -2.85299e-015   XYZ
    dof rx rz
    limits (-45.0 45.0)
           (-45.0 45.0)
  end
:hierarchy
  begin
    root lhipjoint rhipjoint lowerback
    lhipjoint lfemur
    lfemur ltibia
    ltibia lfoot
    lfoot ltoes
    rhipjoint rfemur
    rfemur rtibia
    rtibia rfoot
    rfoot rtoes
    lowerback upperback
    upperback thorax
    thorax lowerneck lclavicle rclavicle
    lowerneck upperneck
    upperneck head
    lclavicle lhumerus
    lhumerus lradius
    lradius lwrist
    lwrist lhand lthumb
    lhand lfingers
    rclavicle rhumerus
    rhumerus rradius
    rradius rwrist
    rwrist rhand rthumb
    rhand rfingers
  end

#!OML:ASF F:\VICON\USERDATA\INSTALL\rory3\rory3.ASF
:FULLY-SPECIFIED
:DEGREES
952
root 3.93247 17.5299 0.475615 -150.635 87.2994 -145.279
lowerback -1.50882 0.628095 -2.25864
upperback -5.68708 0.869705 -7.17484
thorax -4.99102 0.490787 -6.29071
lowerneck -8.83617 -5.2469 -7.20404
upperneck 6.42756 -6.58937 5.20006
head 3.76548 -3.19362 2.34511
rclavicle -3.65764e-014 1.04958e-013
rhumerus -82.0013 36.8663 -108.403
rradius 84.361
rwrist -58.2717
rhand 25.4617 9.15345
rfingers 7.12502
rthumb 49.5847 -12.2846
lclavicle -3.65764e-014 1.04958e-013
lhumerus 4.6321 38.6244 16.9925
lradius 95.2707
lwrist 7.36603
lhand -0.940769 36.8758
lfingers 7.12502
lthumb 24.689 65.3029
rfemur 9.111 4.60008 22.3531
rtibia 13.7735
rfoot -23.8263 -12.03
rtoes -6.2629
lfemur 6.19214 -0.204797 -13.3491
ltibia 13.1103
lfoot -13.7329 -3.78642
ltoes -6.7587
953
root 3.94896 17.5299 0.473864 -147.607 87.2681 -142.197
lowerback -1.88827 0.614309 -2.16519
upperback -5.76914 0.877459 -7.17814
thorax -4.85951 0.493314 -6.34057
lowerneck -8.79886 -5.24909 -7.13912
upperneck 6.26516 -6.59337 5.15659
head 3.70657 -3.19602 2.3239
rclavicle 7.15625e-015 0
rhumerus -81.8694 36.852 -108.357
rradius 84.3989
rwrist -58.3448
rhand 25.4573 8.90665
rfingers 7.12502
rthumb 49.5806 -12.5335
lclavicle 7.15625e-015 0
lhumerus 4.57644 38.6332 16.9817
lradius 95.3527
lwrist 7.50006
lhand -1.67807 36.9199
lfingers 7.12502
lthumb 23.9821 65.4419
rfemur 9.22346 4.64016 22.524
rtibia 13.7782
rfoot -23.8894 -12.0415
rtoes -6.12279
lfemur 6.32387 -0.164922 -13.174
ltibia 13.1002
lfoot -13.7447 -3.88969
ltoes -6.25097
954
root 3.96819 17.5295 0.470263 -149.938 87.2762 -144.443
lowerback -2.25435 0.573398 -2.27214
upperback -5.8315 0.850749 -7.25066
thorax -4.72064 0.488475 -6.35006
lowerneck -8.8601 -5.24254 -7.12698
upperneck 6.24374 -6.58282 5.17809
head 3.70975 -3.18832 2.32806
rclavicle 1.19271e-014 -5.08889e-014
rhumerus -81.741 36.7522 -108.301
rradius 84.3908
rwrist -58.3175
rhand 25.4769 8.79439
rfingers 7.12502
rthumb 49.5986 -12.6366
lclavicle 1.19271e-014 -5.08889e-014
lhumerus 4.47127 38.6096 16.941
lradius 95.4711
lwrist 7.64073
lhand -2.39571 37.0886
lfingers 7.12502
lthumb 23.2938 65.6994
rfemur 9.38603 4.5908 22.4034
rtibia 13.8133
rfoot -24.0188 -11.9538
rtoes -5.75365
lfemur 6.525 -0.223132 -13.2832
ltibia 13.0254
lfoot -13.7871 -3.90861
ltoes -6.41196
955
root 3.98978 17.5233 0.46417 -153.564 87.2878 -147.941
lowerback -2.60074 0.526056 -2.41993
upperback -5.8745 0.815667 -7.30435
thorax -4.57401 0.481325 -6.31597
lowerneck -8.9966 -5.22912 -7.25605
upperneck 6.26984 -6.54844 5.27596
head 3.74546 -3.16758 2.37725
rclavicle -7.95139e-015 5.40694e-014
rhumerus -81.6759 36.6914 -108.222
rradius 84.3762
rwrist -58.2122
rhand 25.6585 8.89555
rfingers 7.12502
rthumb 49.7651 -12.4497
lclavicle -7.95139e-015 5.40694e-014
lhumerus 4.37624 38.5548 16.9456
lradius 95.5691
lwrist 7.83297
lhand -3.19789 37.1914
lfingers 7.12502
lthumb 22.524 65.8977
rfemur 9.59049 4.52321 22.2125
rtibia 13.8855
rfoot -24.1486 -11.9074
rtoes -5.83591
lfemur 6.79936 -0.305137 -13.4665
ltibia 12.9174
lfoot -13.8234 -3.93836
ltoes -6.25827
956
root 4.00764 17.5176 0.459073 -155.763 87.2918 -149.999
lowerback -2.85072 0.488191 -2.49634
upperback -5.95489 0.784639 -7.34361
thorax -4.52081 0.471766 -6.31163
lowerneck -9.03306 -5.20896 -7.23049
upperneck 6.21321 -6.51127 5.17866
head 3.72763 -3.15245 2.34583
rclavicle 2.62396e-014 -7.63333e-014
rhumerus -81.6591 36.6051 -108.183
rradius 84.3767
rwrist -58.1386
rhand 25.8776 8.86269
rfingers 7.12502
rthumb 49.9657 -12.3781
lclavicle 2.62396e-014 -7.63333e-014
lhumerus 4.26051 38.3742 16.8728
lradius 95.6184
lwrist 8.18128
lhand -4.33393 37.2092
lfingers 7.12502
lthumb 21.4333 66.0436
rfemur 9.77567 4.48543 22.093
rtibia 13.9769
rfoot -24.3437 -11.7601
rtoes -5.42369
lfemur 7.07783 -0.358385 -13.5791
ltibia 12.7977
lfoot -13.8155 -4.00559
ltoes -5.7362
957
root 4.01988 17.5121 0.4537 -156.587 87.299 -150.67
lowerback -2.98024 0.48209 -2.53374
upperback -6.09343 0.783975 -7.35464
thorax -4.59465 0.474595 -6.30489
lowerneck -8.86459 -5.20766 -7.22275
upperneck 5.99472 -6.51101 5.13348
head 3.63193 -3.15607 2.33708
rclavicle -3.97569e-015 -1.90833e-014
rhumerus -81.7061 36.4516 -108.11
rradius 84.4584
rwrist -58.0931
rhand 26.0508 8.65909
rfingers 7.12502
rthumb 50.1241 -12.4982
lclavicle -3.97569e-015 -1.90833e-014
lhumerus 4.13133 38.1365 16.8701
lradius 95.6751
lwrist 8.46125
lhand -5.26895 37.3664
lfingers 7.12502
lthumb 20.535 66.3004
rfemur 9.99352 4.4747 22.0566
rtibia 13.9855
rfoot -24.4115 -11.7179
rtoes -5.401
lfemur 7.2823 -0.381386 -13.6183
ltibia 12.8146
lfoot -13.8412 -4.0784
ltoes -5.15121
958
root 4.03706 17.504 0.44734 -157.053 87.346 -150.945
lowerback -3.17903 0.489448 -2.57666
upperback -6.16866 0.807866 -7.33847
thorax -4.55985 0.490575 -6.2612
lowerneck -8.83232 -5.20886 -7.24493
upperneck 5.85106 -6.50477 5.1063
head 3.58242 -3.15456 2.33501
rclavicle 1.27222e-014 -6.36111e-014
rhumerus -81.7069 36.3641 -107.949
rradius 84.5188
rwrist -58.0687
rhand 26.0614 8.62562
rfingers 7.12502
rthumb 50.1339 -12.5265
lclavicle 1.27222e-014 -6.36111e-014
lhumerus 4.03 38.1185 17.0009
lradius 95.7333
lwrist 8.48394
lhand -5.71632 37.4294
lfingers 7.12502
lthumb 20.105 66.4092
rfemur 10.3041 4.5056 22.0242
rtibia 13.928
rfoot -24.4368 -11.7278
rtoes -5.61212
lfemur 7.50899 -0.362417 -13.6895
ltibia 12.9625
lfoot -14.0339 -4.16336
ltoes -4.84461
959
root 4.05209 17.4943 0.442436 -155.263 87.365 -148.98
lowerback -3.38302 0.494521 -2.50108
upperback -6.23771 0.826768 -7.29059
thorax -4.51474 0.498269 -6.25041
lowerneck -8.8111 -5.20877 -7.25347
upperneck 5.69202 -6.49328 5.03219
head 3.52767 -3.15194 2.31678
rclavicle -5.00937e-014 1.74931e-013
rhumerus -81.6603 36.2872 -107.793
rradius 84.6007
rwrist -58.0755
rhand 26.1539 8.59226
rfingers 7.12502
rthumb 50.2184 -12.515
lclavicle -5.00937e-014 1.74931e-013
lhumerus 3.93222 38.1704 17.0968
lradius 95.7277
lwrist 8.39733
lhand -5.456 37.5007
lfingers 7.12502
lthumb 20.3552 66.454
rfemur 10.5745 4.54788 22.1287
rtibia 13.8962
rfoot -24.4627 -11.8715
rtoes -6.75275
lfemur 7.6962 -0.326655 -13.6314
ltibia 13.1294
lfoot -14.1566 -4.27741
ltoes -4.45304
960
root 4.06129 17.4866 0.440793 -151.636 87.3247 -145.204
lowerback -3.5682 0.481775 -2.35693
upperback -6.32671 0.817811 -7.21298
thorax -4.50337 0.488621 -6.248
lowerneck -8.73109 -5.21991 -7.29444
upperneck 5.51723 -6.50277 5.02921
head 3.46343 -3.15791 2.3255
rclavicle -3.97569e-014 1.24042e-013
rhumerus -81.6294 36.2786 -107.762
rradius 84.5943
rwrist -58.1082
rhand 26.0686 8.54772
rfingers 7.12502
rthumb 50.1404 -12.601
lclavicle -3.97569e-014 1.24042e-013
lhumerus 3.85002 38.222 17.1624
lradius 95.6379
lwrist 8.35262
lhand -4.75607 37.4219
lfingers 7.12502
lthumb 21.0278 66.3019
rfemur 10.7787 4.57242 22.3705
rtibia 13.8844
rfoot -24.513 -11.9703
rtoes -7.19914
lfemur 7.83778 -0.302329 -13.4417
ltibia 13.2668
lfoot -14.2937 -4.32
ltoes -4.52079
961
root 4.07067 17.4782 0.43546 -153.462 87.3689 -146.849
lowerback -3.74216 0.444156 -2.42351
upperback -6.43711 0.780749 -7.23623
thorax -4.52614 0.475142 -6.23572
lowerneck -8.62292 -5.21406 -7.27127
upperneck 5.49081 -6.50546 5.03599
head 3.43751 -3.16002 2.3266
rclavicle -2.46493e-014 8.90555e-014
rhumerus -81.731 36.2247 -107.832
rradius 84.6751
rwrist -58.1866
rhand 25.8926 8.39181
rfingers 7.12502
rthumb 49.9794 -12.8417
lclavicle -2.46493e-014 8.90555e-014
lhumerus 3.74551 38.1471 17.1473
lradius 95.5609
lwrist 8.38693
lhand -4.67737 37.3673
lfingers 7.12502
lthumb 21.1034 66.2389
rfemur 11.0259 4.56709 22.298
rtibia 13.876
rfoot -24.4809 -12.1056
rtoes -7.75644
lfemur 8.00564 -0.317644 -13.5473
ltibia 13.4023
lfoot -14.4071 -4.37157
ltoes -4.44302
962
root 4.08391 17.4715 0.429451 -158.761 87.4442 -152.007
lowerback -3.95248 0.415499 -2.63232
upperback -6.60691 0.761981 -7.30412
thorax -4.59146 0.478746 -6.1924
lowerneck -8.31496 -5.19548 -7.31446
upperneck 5.45784 -6.50337 5.10982
head 3.38135 -3.1616 2.3637
rclavicle 2.62396e-014 -7.63333e-014
rhumerus -81.9527 36.0391 -107.917
rradius 84.7339
rwrist -58.2345
rhand 25.8418 8.21224
rfingers 7.12502
rthumb 49.9329 -13.0457
lclavicle 2.62396e-014 -7.63333e-014
lhumerus 3.53892 37.8741 17.097
lradius 95.6185
lwrist 8.41613
lhand -4.84072 37.4776
lfingers 7.12502
lthumb 20.9464 66.3666
rfemur 11.2357 4.53884 22.0404
rtibia 13.8999
rfoot -24.4976 -12.1887
rtoes -8.24628
lfemur 8.14192 -0.357035 -13.8234
ltibia 13.5153
lfoot -14.4958 -4.4446
ltoes -4.09984
963
root 4.09775 17.4665 0.423805 -160.561 87.4459 -153.647
lowerback -4.13818 0.385094 -2.66825
upperback -6.74753 0.73463 -7.29561
thorax -4.63871 0.469387 -6.16463
lowerneck -8.05279 -5.1647 -7.43
upperneck 5.31703 -6.47576 5.26484
head 3.3035 -3.1473 2.43863
rclavicle -3.97569e-015 1.27222e-014
rhumerus -82.116 35.9467 -107.98
rradius 84.7491
rwrist -58.2948
rhand 25.7682 8.20639
rfingers 7.12502
rthumb 49.8655 -13.0867
lclavicle -3.97569e-015 1.27222e-014
lhumerus 3.35817 37.6741 17.1002
lradius 95.5825
lwrist 8.33823
lhand -4.87466 37.416
lfingers 7.12502
lthumb 20.9138 66.3086
rfemur 11.4361 4.50874 21.981
rtibia 13.9799
rfoot -24.5984 -12.228
rtoes -8.52302
lfemur 8.34516 -0.396955 -13.9083
ltibia 13.5485
lfoot -14.5822 -4.48926
ltoes -4.05956
964
root 4.10789 17.4606 0.420491 -159.153 87.4254 -152.102
lowerback -4.32933 0.34005 -2.58291
upperback -6.83619 0.685415 -7.24516
thorax -4.62832 0.442687 -6.15858
lowerneck -8.04293 -5.13057 -7.37671
upperneck 4.96607 -6.41588 5.09131
head 3.54506 -3.13757 2.65368
rclavicle -3.49861e-014 8.90555e-014
rhumerus -82.0704 35.9161 -107.979
rradius 84.7424
rwrist -58.2875
rhand 25.6396 8.10774
rfingers 7.12502
rthumb 49.7477 -13.2465
lclavicle -3.49861e-014 8.90555e-014
lhumerus 3.12622 37.6036 16.9612
lradius 95.5354
lwrist 8.30599
lhand -4.89847 37.4598
lfingers 7.12502
lthumb 20.891 66.3549
rfemur 11.5916 4.50319 22.088
rtibia 14.0568
rfoot -24.6736 -12.2716
rtoes -8.55105
lfemur 8.54403 -0.407004 -13.8379
ltibia 13.5457
lfoot -14.6307 -4.60913
ltoes -4.04216
965
root 4.11506 17.4539 0.4153 -160.027 87.3776 -152.857
lowerback -4.47938 0.290332 -2.55583
upperback -6.93673 0.629058 -7.23105
thorax -4.65529 0.415153 -6.16032
lowerneck -8.05089 -5.11747 -7.26781
upperneck 4.92891 -6.40509 5.0475
head 3.52521 -3.13103 2.61884
rclavicle -1.90833e-014 6.04305e-014
rhumerus -82.0434 35.8121 -107.913
rradius 84.7899
rwrist -58.2797
rhand 25.6089 8.1069
rfingers 7.12502
rthumb 49.7196 -13.2618
lclavicle -1.90833e-014 6.04305e-014
lhumerus 2.91275 37.4519 16.6839
lradius 95.4377
lwrist 8.39381
lhand -4.98853 37.4819
lfingers 7.12502
lthumb 20.8044 66.3865
rfemur 11.7519 4.43819 22.0952
rtibia 14.0974
rfoot -24.7403 -12.3212
rtoes -8.73773
lfemur 8.69357 -0.475106 -13.8688
ltibia 13.5716
lfoot -14.6465 -4.72282
ltoes -3.28018
966
root 4.1281 17.4496 0.406826 -161.553 87.3621 -154.293
lowerback -4.7735 0.269498 -2.53089
upperback -7.03357 0.623268 -7.22199
thorax -4.59244 0.414355 -6.16283
lowerneck -8.06207 -5.12809 -7.22313
upperneck 4.97755 -6.42127 4.99566
head 3.54071 -3.14027 2.59125
rclavicle -2.06736e-014 3.49861e-014
rhumerus -82.0435 35.6806 -107.8
rradius 84.8532
rwrist -58.2753
rhand 25.8171 8.04734
rfingers 7.12502
rthumb 49.9103 -13.2224
lclavicle -2.06736e-014 3.49861e-014
lhumerus 2.71649 37.2935 16.5606
lradius 95.4562
lwrist 8.55283
lhand -5.1566 37.6304
lfingers 7.12502
lthumb 20.6429 66.5527
rfemur 11.918 4.40092 22.0226
rtibia 14.0987
rfoot -24.7677 -12.4187
rtoes -9.18946
lfemur 8.8072 -0.518615 -13.9545
ltibia 13.6255
lfoot -14.7489 -4.75233
ltoes -3.05309
